<?xml version="1.0" standalone="no"?>
<!DOCTYPE svg PUBLIC "-//W3C//DTD SVG 20010904//EN"
 "http://www.w3.org/TR/2001/REC-SVG-20010904/DTD/svg10.dtd">
<svg version="1.0" xmlns="http://www.w3.org/2000/svg"
 width="512.000000pt" height="512.000000pt" viewBox="0 0 512.000000 512.000000"
 preserveAspectRatio="xMidYMid meet">
<metadata>
Created by potrace 1.14, written by Peter Selinger 2001-2017
</metadata>
<g transform="translate(0.000000,512.000000) scale(0.100000,-0.100000)"
fill="#000000" stroke="none">
<path d="M300 5111 c0 -9 71 -61 83 -61 4 0 7 16 7 35 0 35 0 35 -45 35 -25 0
-45 -4 -45 -9z"/>
<path d="M854 5083 c10 -66 27 -473 25 -608 -3 -205 12 -595 23 -589 5 4 5 -2
-1 -12 -20 -38 -31 -110 -21 -145 13 -45 13 -225 0 -250 -11 -20 -64 -27 -75
-9 -4 7 -14 5 -28 -5 -22 -16 -54 -19 -81 -9 -29 11 -20 83 17 145 18 31 43
65 55 77 26 26 20 60 -7 40 -13 -10 -14 -10 -3 2 35 40 -17 85 -86 74 -36 -6
-41 -3 -61 25 -12 17 -34 34 -49 37 -15 4 -40 13 -56 21 -15 8 -25 10 -22 4 4
-6 1 -37 -7 -68 -14 -59 -14 -161 -2 -243 6 -37 3 -50 -13 -70 l-20 -24 -38
38 c-34 34 -40 36 -61 25 -20 -11 -29 -10 -59 6 -34 18 -35 18 -73 -3 -35 -20
-40 -20 -52 -6 -11 13 -11 21 3 44 12 22 14 31 5 39 -21 17 -83 23 -125 11
l-42 -11 0 -1810 0 -1810 32 3 c36 3 30 -8 91 178 55 166 57 171 95 249 l37
73 7 -33 c3 -19 1 -50 -7 -74 -7 -22 -15 -62 -18 -90 -3 -27 -15 -72 -26 -98
-12 -27 -21 -64 -21 -82 0 -19 -4 -36 -9 -39 -4 -3 -6 -18 -3 -33 5 -26 4 -27
-13 -13 -17 14 -18 13 -12 -3 4 -10 7 -23 7 -28 0 -5 47 -9 105 -9 l105 0 0
83 c1 45 7 111 15 147 8 36 20 90 26 120 13 68 25 85 45 65 8 -7 14 -21 14
-30 0 -9 4 -13 10 -10 6 4 10 -11 11 -37 1 -24 4 -54 8 -68 l7 -25 17 30 17
30 -6 -30 c-8 -36 -48 -117 -67 -137 -16 -16 -51 -81 -61 -116 l-8 -23 166 2
c157 1 166 2 197 25 18 13 37 24 41 24 5 0 22 10 38 22 16 12 32 19 36 16 3
-4 -23 -25 -58 -48 l-63 -41 40 4 c22 2 49 8 59 12 14 6 17 5 12 -3 -4 -7 -2
-12 3 -12 6 0 11 4 11 9 0 5 8 11 18 15 9 3 23 9 31 12 9 4 11 2 6 -5 -4 -7
-17 -16 -29 -21 -14 -6 8 -9 70 -9 59 -1 95 3 103 11 11 10 13 10 7 1 -6 -10
67 -13 348 -13 231 0 356 4 356 10 0 6 8 10 18 10 14 0 15 -2 2 -10 -10 -6
570 -10 1648 -10 l1662 0 0 214 c0 209 0 214 -21 219 -23 6 -17 27 7 27 8 0
14 10 14 24 0 18 -7 26 -22 29 l-23 4 23 2 22 1 0 1715 c0 1518 -2 1715 -15
1715 -9 0 -15 9 -15 25 0 16 6 25 15 25 13 0 15 24 15 159 l0 160 -27 3 c-28
3 -28 3 -27 76 2 78 18 132 40 132 12 0 14 51 14 295 l0 295 -480 0 -481 0 8
-37 c4 -21 7 -54 6 -73 -3 -66 -3 -105 3 -343 3 -154 2 -249 -5 -269 -8 -22
-7 -44 5 -86 14 -56 14 -305 -1 -852 -2 -80 -4 -159 -5 -177 0 -40 -16 -36
-48 11 -21 31 -23 42 -20 167 1 90 -2 141 -10 156 -7 12 -12 30 -12 40 0 29
-73 167 -117 220 -81 98 -86 110 -89 192 -2 50 2 94 13 129 15 48 15 55 0 85
-12 25 -17 75 -21 220 -4 196 1 243 32 271 16 14 18 30 16 107 -2 66 -7 95
-18 108 -11 12 -16 37 -16 74 l0 57 -494 0 -494 0 -8 -27 c-4 -16 -6 -70 -5
-122 l3 -94 -58 6 c-50 5 -63 11 -86 38 -18 21 -32 30 -43 25 -9 -3 -14 -10
-10 -16 8 -12 -20 -18 -130 -24 -83 -5 -186 -30 -237 -57 -11 -6 -39 -28 -62
-49 l-41 -37 -118 -6 c-86 -4 -126 -10 -151 -24 -44 -23 -240 -202 -282 -257
l-33 -43 27 5 27 5 -35 -39 c-37 -40 -35 -40 45 12 45 29 40 5 -8 -39 -26 -24
-47 -47 -47 -51 0 -5 -21 -34 -47 -64 -113 -130 -170 -208 -203 -272 -29 -58
-23 -52 38 41 28 41 75 100 104 130 65 66 193 175 158 134 -14 -17 -28 -31
-32 -33 -5 -2 -8 -10 -8 -18 0 -11 5 -10 21 5 12 11 36 27 53 36 17 8 49 27
71 42 l40 26 -34 -37 c-19 -20 -29 -36 -22 -36 7 0 -3 -19 -22 -42 -64 -80
-257 -382 -257 -403 0 -4 16 13 35 39 41 53 48 57 35 19 -9 -25 -6 -24 28 14
21 23 59 72 84 110 26 37 67 91 93 118 l46 50 -26 -50 c-15 -27 -19 -41 -10
-30 36 44 98 106 102 101 3 -2 -14 -32 -37 -66 -23 -33 -43 -70 -45 -80 -2
-11 -15 -35 -29 -53 -14 -19 -26 -39 -26 -45 0 -6 -29 -58 -63 -114 -72 -117
-90 -148 -83 -148 3 0 25 31 51 69 25 37 58 79 72 92 l27 24 -20 -30 c-21 -31
-44 -81 -44 -93 0 -4 9 7 19 23 48 74 81 100 42 33 -11 -18 -37 -76 -59 -128
-22 -52 -65 -158 -97 -235 -31 -77 -93 -217 -136 -312 -44 -94 -79 -175 -79
-178 0 -3 -29 -65 -65 -136 -67 -134 -85 -187 -37 -109 55 87 221 417 280 555
119 275 159 365 165 372 10 10 8 -31 -1 -42 -21 -24 -143 -365 -142 -394 1 -3
7 5 16 19 l15 25 -4 -35 c-6 -48 -35 -193 -52 -259 -8 -30 -13 -56 -11 -58 4
-5 66 153 66 169 0 8 7 23 14 34 8 12 20 42 27 68 6 26 13 45 16 43 9 -10 -31
-214 -58 -294 -16 -49 -32 -100 -34 -116 -3 -15 -38 -97 -80 -181 -41 -85 -75
-158 -75 -162 0 -5 21 26 47 68 26 43 48 76 50 74 2 -1 -10 -29 -26 -62 -53
-110 -54 -149 -1 -44 17 33 33 60 35 60 3 0 1 -9 -5 -20 -6 -11 -8 -20 -5 -20
3 0 17 25 31 55 13 30 35 80 49 112 14 31 28 54 31 51 18 -19 -111 -356 -211
-551 -36 -70 -61 -127 -57 -127 11 0 90 118 122 180 12 24 29 51 38 59 9 9 38
63 64 121 94 201 87 188 87 160 1 -14 -15 -79 -34 -144 -36 -122 -44 -165 -25
-136 5 8 10 11 10 6 0 -17 -118 -330 -154 -410 -20 -44 -35 -81 -33 -82 6 -6
84 137 106 191 11 28 36 93 55 145 39 104 45 99 19 -13 -9 -40 -16 -75 -15
-79 1 -5 -31 -109 -72 -233 -90 -272 -104 -347 -86 -448 23 -130 97 -313 166
-410 38 -53 40 -57 20 -57 -8 0 -41 29 -72 64 -32 36 -62 62 -66 60 -5 -3 -14
1 -21 8 -23 23 -66 83 -65 91 0 15 -36 107 -42 107 -4 0 -5 -14 -2 -30 3 -18
0 -30 -7 -30 -16 0 -14 -25 4 -40 17 -14 21 -35 5 -25 -14 8 -13 4 7 -36 18
-37 77 -125 119 -176 15 -18 22 -33 16 -33 -12 0 -122 92 -164 136 -76 82 -98
94 -98 55 0 -9 -12 -27 -26 -40 l-26 -25 14 35 c14 36 13 93 -3 84 -5 -4 -9 6
-9 21 0 22 -2 25 -15 14 -12 -10 -15 -9 -15 6 0 14 -12 6 -47 -31 -26 -28 -44
-42 -40 -32 4 10 7 27 7 38 0 10 5 19 11 19 6 0 8 -8 5 -17 -4 -10 9 -1 29 20
35 39 44 54 24 41 -8 -5 -10 1 -5 19 8 35 -20 66 -41 44 -8 -8 -16 -33 -16
-56 -2 -33 -5 -40 -18 -36 -34 11 -58 -113 -28 -150 11 -14 -3 -106 -16 -106
-5 0 -13 13 -16 28 -12 55 -21 74 -36 69 -10 -4 -11 -1 -3 14 13 25 13 40 -2
40 -7 0 -13 12 -14 28 -1 61 -17 157 -26 163 -6 4 -8 17 -5 29 5 21 5 21 -14
4 -20 -18 -20 -18 -10 10 6 15 16 37 22 48 10 19 9 20 -10 15 -25 -6 -27 0 -5
24 9 10 14 25 12 35 -4 21 -88 -95 -88 -123 0 -10 -5 -25 -10 -33 -7 -11 -9
-5 -6 21 2 19 25 77 50 127 25 50 46 94 46 98 0 3 -11 4 -25 2 -28 -6 -32 3
-10 22 8 7 15 16 15 21 0 19 -16 7 -44 -31 -17 -22 -37 -40 -47 -40 -9 0 -22
-7 -29 -15 -16 -19 -31 -19 -24 0 5 12 -3 11 -41 -5 -26 -11 -49 -19 -51 -17
-2 2 19 23 46 46 62 52 76 74 85 130 7 41 6 43 -14 36 -20 -6 -20 -5 3 18 16
16 23 32 19 45 -2 11 0 23 6 26 15 10 14 56 -1 56 -9 0 -9 3 -2 8 6 4 10 36
10 72 0 36 4 90 7 120 l7 55 -35 -55 c-33 -51 -55 -106 -55 -140 0 -8 -5 -22
-10 -30 -8 -11 -10 5 -9 53 1 37 0 70 -3 72 -5 6 -51 -62 -81 -120 -9 -16 -16
-23 -16 -15 -1 19 35 134 50 162 10 18 9 20 -7 14 -17 -6 -17 -5 2 16 22 25
47 78 41 85 -2 2 -30 -28 -61 -67 -31 -38 -59 -70 -61 -70 -2 0 14 31 36 70
44 78 45 82 23 73 -9 -3 14 23 50 58 44 44 68 75 72 97 4 17 10 32 15 32 5 0
9 7 9 16 0 8 -4 13 -9 10 -5 -3 -11 8 -13 25 -3 16 -1 32 4 35 4 3 7 24 7 47
-1 36 14 98 46 192 4 12 -2 7 -14 -10 -11 -16 -21 -28 -21 -25 0 8 34 103 64
179 15 36 26 67 26 70 -1 3 -31 -57 -69 -134 -63 -131 -148 -285 -157 -285 -2
0 10 28 27 63 36 71 31 68 -34 -23 -25 -36 -61 -81 -79 -100 -18 -20 -30 -31
-26 -26 12 16 9 28 -4 20 -7 -3 1 6 17 20 24 22 19 21 -28 -8 -31 -20 -60 -36
-63 -36 -3 0 28 27 69 59 130 104 245 293 351 579 25 67 55 155 66 195 10 40
31 106 45 147 31 87 39 181 16 172 -11 -4 -13 -1 -6 14 11 27 15 115 4 109 -4
-3 -3 9 3 26 9 25 8 42 -4 78 -8 25 -16 71 -17 101 -1 30 -4 72 -7 93 -5 33
-8 36 -22 25 -9 -8 -7 1 7 19 12 18 20 37 16 43 -3 5 1 23 9 39 14 26 14 32
-1 62 -17 35 -25 122 -37 442 -3 81 -8 177 -11 215 -10 136 -13 347 -4 365 9
15 4 17 -37 17 l-46 0 6 -37z m1896 -1141 c0 -5 14 -7 31 -4 17 2 40 0 52 -6
12 -6 52 -13 89 -16 43 -3 85 -14 116 -30 67 -34 140 -118 146 -168 1 -12 12
-43 24 -68 12 -25 22 -51 22 -58 0 -7 26 -45 58 -85 63 -77 121 -171 140 -225
24 -69 44 -224 39 -305 -8 -136 -24 -207 -72 -312 -25 -55 -45 -105 -45 -112
0 -6 -9 -18 -20 -26 -21 -15 -55 -128 -46 -153 3 -8 2 -14 -3 -14 -4 0 -8 -7
-8 -15 0 -8 4 -15 9 -15 4 0 8 -7 8 -15 0 -8 5 -15 11 -15 5 0 7 -4 4 -10 -3
-5 0 -10 9 -10 43 0 10 -168 -55 -275 -40 -67 -227 -252 -351 -348 -80 -62
-214 -137 -246 -137 -7 0 -11 -4 -8 -9 10 -16 -160 -25 -196 -10 -61 25 -265
193 -362 298 -94 100 -163 242 -185 377 -11 74 -4 276 14 375 6 35 37 70 56
64 14 -5 22 0 28 17 6 13 10 19 10 15 1 -4 12 4 26 18 14 14 29 25 34 25 4 0
14 11 21 25 8 15 40 39 77 57 35 17 63 32 63 34 0 1 -5 15 -11 31 -21 52 -28
97 -18 109 14 17 1 58 -27 85 -29 27 -30 35 -4 42 14 3 20 14 20 31 0 14 -4
26 -9 26 -5 0 -18 17 -28 37 -19 39 -30 44 -163 75 -66 15 -73 24 -65 77 10
66 100 287 143 349 67 98 153 162 217 162 14 0 25 5 25 10 0 6 11 10 24 10 13
0 29 6 35 14 6 7 26 17 44 21 17 4 34 8 37 9 3 1 10 5 17 9 6 4 33 10 59 13
27 3 56 10 66 15 10 6 22 7 27 4 5 -3 19 -1 31 3 31 12 90 14 90 4z m-1759
-419 c-5 -10 -17 -27 -26 -38 -16 -19 -17 -19 -3 5 26 46 29 50 34 50 3 0 0
-8 -5 -17z m-58 -94 c-10 -17 -31 -45 -46 -62 -18 -21 -14 -11 13 31 43 64 65
85 33 31z m784 -51 c-3 -8 -6 -5 -6 6 -1 11 2 17 5 13 3 -3 4 -12 1 -19z m-32
-118 c-4 -17 -9 -29 -12 -26 -3 2 -2 19 2 36 4 17 9 29 12 26 3 -2 2 -19 -2
-36z m-1477 -87 c17 -23 15 -88 -3 -103 -21 -18 -47 -19 -72 -3 -17 12 -26 12
-44 2 -45 -24 -61 48 -21 94 33 37 114 43 140 10z m3600 -100 c4 -28 -106 -98
-139 -88 -20 7 -18 10 22 52 64 65 111 80 117 36z m62 -291 c-6 -63 -18 -137
-27 -165 -21 -72 -73 -155 -133 -211 l-50 -46 -37 15 c-21 9 -48 26 -61 39
-22 21 -23 26 -12 63 7 21 20 43 29 49 39 21 116 75 117 82 0 4 5 21 9 37 5
17 9 39 9 50 1 30 38 26 47 -5 9 -32 11 -21 13 67 l1 72 -37 6 c-21 4 -38 11
-38 16 0 9 58 49 72 49 11 0 40 -62 52 -115 l12 -50 12 53 c7 29 12 76 13 105
0 46 2 49 11 27 7 -17 6 -59 -2 -138z m-1840 107 c0 -11 -27 -12 -34 0 -3 4
-3 11 0 14 8 8 34 -3 34 -14z m17 -47 c17 -10 5 -52 -15 -52 -16 0 -52 28 -52
41 0 4 10 10 23 12 12 2 24 5 27 5 3 1 10 -2 17 -6z m-30 -90 c-34 -7 -67 7
-67 28 0 19 1 19 43 -3 31 -16 37 -23 24 -25z m-1557 5 c0 -2 -17 -19 -37 -38
l-38 -34 34 38 c33 34 41 42 41 34z m3150 -56 c0 -12 -20 -25 -27 -18 -7 7 6
27 18 27 5 0 9 -4 9 -9z m-3230 -15 c0 -2 -8 -10 -17 -17 -16 -13 -17 -12 -4
4 13 16 21 21 21 13z m-45 -36 c-3 -5 -16 -15 -28 -21 -19 -9 -19 -8 3 10 28
23 34 26 25 11z m-85 -55 c0 -2 -10 -9 -22 -15 -22 -11 -22 -10 -4 4 21 17 26
19 26 11z m-50 -30 c0 -2 -18 -14 -40 -25 -22 -11 -40 -18 -40 -15 0 2 17 13
38 24 42 23 42 23 42 16z m571 -18 c-10 -9 -11 -8 -5 6 3 10 9 15 12 12 3 -3
0 -11 -7 -18z m887 -318 c-6 -30 -15 -58 -19 -63 -7 -7 -2 23 17 103 3 13 7
21 10 19 2 -3 -1 -29 -8 -59z m2412 -339 c6 -11 8 -20 6 -20 -3 0 -10 9 -16
20 -6 11 -8 20 -6 20 3 0 10 -9 16 -20z m-114 -42 c17 -18 36 -42 44 -53 14
-19 14 -19 -6 -2 -11 9 -28 17 -37 17 -9 0 -17 7 -17 16 0 9 -5 12 -12 8 -7
-4 -8 -3 -4 5 4 6 2 18 -4 26 -25 30 7 14 36 -17z m184 -13 c13 -14 21 -25 18
-25 -2 0 -15 11 -28 25 -13 14 -21 25 -18 25 2 0 15 -11 28 -25z m-1475 -395
c25 -6 20 -8 -27 -9 -50 -1 -59 -4 -83 -33 -43 -51 -48 -74 -31 -153 8 -38 17
-79 22 -90 6 -18 5 -19 -9 -5 -9 9 -24 46 -33 83 -24 96 -12 132 68 204 15 13
48 14 93 3z m265 0 c0 -5 -4 -10 -10 -10 -5 0 -10 5 -10 10 0 6 5 10 10 10 6
0 10 -4 10 -10z m-208 -62 c-7 -7 -12 -29 -12 -50 0 -29 4 -38 18 -39 15 -1
15 -2 -1 -6 -16 -4 -18 -11 -12 -41 11 -67 15 -72 46 -72 16 0 29 -4 29 -10 0
-5 -12 -10 -27 -10 -32 0 -20 -16 17 -23 19 -3 16 -5 -11 -6 -20 0 -41 5 -48
12 -20 25 -43 140 -38 189 7 57 13 68 35 68 12 0 13 -3 4 -12z m242 -14 c3 -8
2 -12 -4 -9 -6 3 -10 10 -10 16 0 14 7 11 14 -7z m12 -108 c-7 -74 -21 -108
-24 -56 -4 70 7 142 20 134 7 -4 8 -33 4 -78z m-1856 -89 c0 -5 -4 -5 -10 -2
-5 3 -10 14 -10 23 0 15 2 15 10 2 5 -8 10 -19 10 -23z m1312 5 l76 -27 -45
-60 c-50 -66 -64 -97 -65 -137 -1 -36 -7 -35 -45 5 -37 38 -56 81 -48 111 5
19 49 136 50 136 1 0 35 -12 77 -28z m672 1 c4 -4 13 -8 20 -8 16 0 114 -82
127 -107 7 -14 7 -24 -2 -35 -16 -18 -109 -73 -126 -73 -7 0 -17 17 -23 39 -5
21 -21 54 -35 74 -13 20 -27 52 -30 71 -6 31 -4 35 17 39 39 7 44 7 52 0z
m-2294 -7 c0 -3 -4 -8 -10 -11 -5 -3 -10 -1 -10 4 0 6 5 11 10 11 6 0 10 -2
10 -4z m-23 -48 c-3 -8 -6 -5 -6 6 -1 11 2 17 5 13 3 -3 4 -12 1 -19z m366
-39 c-5 -5 -8 3 -7 19 3 37 6 41 11 13 3 -13 1 -27 -4 -32z m1580 30 c80 -19
97 -20 146 -9 31 7 62 17 69 22 9 8 12 6 12 -6 0 -9 16 -26 36 -38 26 -15 33
-25 27 -37 -8 -16 -9 -91 -2 -126 3 -16 -11 -25 -86 -56 -101 -42 -201 -58
-234 -37 -16 10 -23 10 -33 0 -29 -29 -135 2 -180 53 -24 27 -25 30 -27 66 -1
16 -5 19 -22 14 -19 -6 -20 -5 -9 15 9 17 14 19 26 10 19 -17 31 14 13 36 -10
13 -9 19 9 37 12 12 31 33 43 47 14 17 22 21 25 13 8 -18 24 -16 24 2 0 21 54
19 163 -6z m1179 -52 c39 -39 35 -48 -4 -10 -18 17 -39 29 -46 28 -7 -2 -8 -1
-2 2 7 3 7 10 -2 21 -12 16 -11 16 7 2 11 -8 32 -28 47 -43z m-2885 -189 c-3
-8 -6 -5 -6 6 -1 11 2 17 5 13 3 -3 4 -12 1 -19z m1465 -63 c0 -5 -5 -11 -11
-13 -6 -2 -11 4 -11 13 0 9 5 15 11 13 6 -2 11 -8 11 -13z m288 -29 c0 -2 -7
-9 -15 -16 -13 -11 -14 -10 -9 4 5 14 24 23 24 12z m181 -21 c0 -5 -9 -11 -21
-13 -20 -3 -27 8 -13 22 10 9 34 3 34 -9z m-561 -11 c0 -8 -5 -12 -10 -9 -6 4
-8 11 -5 16 9 14 15 11 15 -7z m-1943 -40 c-27 -14 -51 -23 -53 -21 -5 5 76
46 91 46 6 0 -12 -11 -38 -25z m2569 -6 c8 -12 -21 -38 -43 -38 -19 0 -16 20
5 36 21 17 29 17 38 2z m-746 -13 c-7 -9 -15 -13 -19 -10 -3 3 1 10 9 15 21
14 24 12 10 -5z m54 -30 c-4 -8 -10 -15 -15 -15 -5 0 -9 7 -9 15 0 8 7 15 15
15 9 0 12 -6 9 -15z m740 -24 c3 -5 -5 -16 -19 -25 -28 -18 -34 -6 -9 18 18
18 21 19 28 7z m-864 -21 c0 -5 -7 -10 -15 -10 -8 0 -15 5 -15 10 0 6 7 10 15
10 8 0 15 -4 15 -10z m50 -19 c0 -12 -20 -25 -27 -18 -7 7 6 27 18 27 5 0 9
-4 9 -9z m850 -6 c0 -2 -10 -10 -22 -16 -21 -11 -22 -11 -9 4 13 16 31 23 31
12z m-409 -15 c19 0 8 -21 -16 -30 -29 -11 -34 -24 -6 -15 15 4 19 1 17 -12
-4 -22 -20 -27 -45 -13 -40 21 -14 89 27 75 8 -3 18 -5 23 -5z m-581 -16 c0
-8 -5 -12 -10 -9 -6 4 -8 11 -5 16 9 14 15 11 15 -7z m1048 -32 c2 -7 -3 -12
-12 -12 -9 0 -16 7 -16 16 0 17 22 14 28 -4z m-38 -1 c0 -12 -28 -22 -34 -12
-3 5 -3 11 1 15 9 9 33 7 33 -3z m-1040 -37 c0 -11 -5 -14 -16 -10 -9 3 -18 6
-20 6 -3 0 -2 5 1 10 10 16 35 12 35 -6z m1108 -6 c-6 -17 -36 -34 -45 -24 -4
4 1 14 11 22 24 17 39 18 34 2z m1792 2 c0 -5 -4 -10 -10 -10 -5 0 -10 5 -10
10 0 6 5 10 10 10 6 0 10 -4 10 -10z m-1360 -10 c0 -5 -9 -10 -21 -10 -11 0
-17 5 -14 10 3 6 13 10 21 10 8 0 14 -4 14 -10z m-1760 -31 c0 -5 -4 -9 -10
-9 -5 0 -10 7 -10 16 0 8 5 12 10 9 6 -3 10 -10 10 -16z m-920 -10 c-14 -12
-54 -49 -90 -83 -66 -63 -133 -116 -146 -116 -4 0 -42 -36 -85 -80 -81 -84
-101 -98 -72 -52 l17 27 -27 -24 c-35 -32 -34 -16 1 40 52 82 175 183 302 247
19 10 51 28 70 40 44 28 63 28 30 1z m1051 11 c6 0 7 -4 4 -10 -7 -12 -55 -13
-55 -2 0 15 13 23 28 17 7 -3 18 -5 23 -5z m-227 -21 c-3 -5 -10 -7 -15 -3 -5
3 -7 10 -3 15 3 5 10 7 15 3 5 -3 7 -10 3 -15z m1462 -15 c-30 -21 -49 -19
-36 5 12 24 32 32 45 19 7 -6 3 -14 -9 -24z m324 6 c0 -5 -7 -10 -16 -10 -8 0
-12 5 -9 10 3 6 10 10 16 10 5 0 9 -4 9 -10z m-899 -40 c17 0 9 -29 -13 -50
l-23 -21 28 6 c33 9 35 1 3 -20 -43 -28 -88 13 -64 58 14 28 29 38 46 32 8 -3
18 -5 23 -5z m649 -15 c0 -9 -9 -15 -25 -15 -24 0 -32 10 -18 23 12 13 43 7
43 -8z m-2280 -3 c0 -9 -100 -85 -105 -80 -7 7 10 25 54 56 47 34 51 36 51 24z
m930 -7 c0 -8 -7 -15 -15 -15 -16 0 -20 12 -8 23 11 12 23 8 23 -8z m-1360
-25 c-7 -4 -10 -13 -6 -19 4 -6 -4 -30 -18 -54 -15 -24 -26 -50 -26 -58 0 -8
-10 -23 -22 -33 -13 -12 -19 -13 -16 -5 3 8 17 50 33 94 27 78 55 119 64 94 2
-6 -2 -15 -9 -19z m3030 26 c0 -3 -4 -8 -10 -11 -5 -3 -10 -1 -10 4 0 6 5 11
10 11 6 0 10 -2 10 -4z m-160 -37 c0 -5 -7 -9 -15 -9 -15 0 -20 12 -9 23 8 8
24 -1 24 -14z m-121 -29 c-6 -16 -17 -30 -25 -30 -20 0 -17 10 8 37 28 30 29
29 17 -7z m-1399 -4 c0 -3 -4 -8 -10 -11 -5 -3 -10 -1 -10 4 0 6 5 11 10 11 6
0 10 -2 10 -4z m1610 -16 c5 8 10 11 10 5 0 -5 -4 -17 -10 -25 -7 -12 -12 -12
-29 4 -11 10 -18 23 -14 29 3 6 12 2 20 -9 12 -16 15 -17 23 -4z m-2691 -22
c-24 -17 -48 -37 -52 -44 -4 -8 -18 -19 -30 -25 -21 -11 -20 -10 3 16 30 33
99 85 113 85 6 0 -10 -14 -34 -32z m96 -44 c-49 -29 -38 -31 34 -4 29 12 56
18 59 16 5 -5 -100 -56 -115 -56 -18 0 -193 -87 -224 -112 -44 -33 -64 -38
-29 -5 86 78 250 181 292 184 19 2 15 -3 -17 -23z m1960 -44 c-3 -5 -13 -10
-21 -10 -8 0 -14 5 -14 10 0 6 9 10 21 10 11 0 17 -4 14 -10z m-294 -21 c34
-24 36 -32 9 -59 -36 -36 -100 -17 -100 30 0 22 26 50 47 50 8 0 28 -9 44 -21z
m-778 -57 c-21 -5 -35 11 -27 31 5 15 8 14 24 -6 16 -19 16 -22 3 -25z m407
-2 c0 -13 -11 -13 -30 0 -12 8 -11 10 8 10 12 0 22 -4 22 -10z"/>
<path d="M2800 3371 c-96 -37 -187 -73 -202 -79 -14 -6 -29 -20 -33 -32 -3
-11 -11 -18 -16 -15 -12 8 -12 -27 1 -59 7 -18 6 -26 -1 -26 -8 0 -7 -5 1 -15
7 -8 19 -15 26 -15 18 0 18 1 -6 -54 -23 -50 -24 -120 -4 -137 19 -15 49 -2
62 26 13 27 42 34 42 10 0 -18 12 -19 28 -3 17 17 15 -1 -3 -45 -8 -20 -12
-48 -9 -65 6 -28 7 -28 68 -28 51 1 66 -3 86 -21 13 -13 30 -23 37 -23 8 0 25
-7 38 -16 14 -9 32 -13 41 -10 10 4 25 -1 35 -10 17 -15 19 -15 34 0 9 9 27
16 39 16 13 0 29 7 36 15 7 8 19 15 26 15 8 0 14 6 14 13 0 6 12 20 28 30 15
11 37 40 49 65 11 26 39 68 62 94 32 36 41 54 41 83 0 48 -29 88 -83 114 -39
19 -62 21 -218 22 l-174 1 60 28 c89 42 175 55 270 41 43 -6 80 -9 83 -6 12
12 -76 88 -135 117 -101 49 -123 47 -323 -31z m100 -391 c0 -5 -5 -12 -11 -16
-14 -8 -33 11 -25 25 7 11 36 4 36 -9z m-90 -21 c0 -14 51 -89 61 -89 5 0 -3
16 -16 36 -26 38 -24 64 2 42 9 -7 19 -12 22 -11 3 2 13 1 21 -1 8 -3 36 -7
62 -11 52 -7 56 -24 10 -42 -25 -10 -25 -11 -4 -12 13 -1 38 15 63 40 22 22
43 39 45 36 8 -8 -30 -67 -43 -67 -7 0 -13 -4 -13 -9 0 -24 -133 -30 -227 -10
-29 6 -53 12 -53 13 0 9 33 83 42 93 11 13 28 8 28 -8z"/>
<path d="M3291 2544 c0 -11 3 -14 6 -6 3 7 2 16 -1 19 -3 4 -6 -2 -5 -13z"/>
<path d="M2671 2372 c-2 -33 -27 -38 -71 -14 -43 23 -71 20 -137 -16 -40 -21
-56 -42 -32 -42 6 0 8 -8 4 -19 -9 -29 21 -40 95 -34 104 8 160 56 147 124
l-4 24 -2 -23z"/>
<path d="M2330 2296 c0 -21 17 -29 48 -21 26 6 26 7 8 21 -26 18 -56 18 -56 0z"/>
<path d="M2508 2085 c-20 -11 -34 -12 -53 -5 -47 18 -67 11 -114 -38 -60 -64
-91 -99 -91 -105 0 -12 108 -120 157 -158 l54 -42 90 6 c104 8 169 34 169 69
0 18 41 72 112 146 19 20 20 25 8 32 -8 6 -20 10 -26 10 -6 0 -55 22 -110 50
-105 53 -148 61 -196 35z m42 -199 c0 -3 -4 -8 -10 -11 -5 -3 -10 -1 -10 4 0
6 5 11 10 11 6 0 10 -2 10 -4z"/>
<path d="M3755 2603 c-30 -7 -43 -23 -18 -23 11 0 26 7 33 15 7 8 11 14 9 14
-2 -1 -13 -3 -24 -6z"/>
<path d="M3612 2484 c-27 -19 -28 -51 -2 -84 17 -23 20 -24 35 -9 9 8 18 32
21 51 5 29 3 38 -13 47 -15 7 -25 6 -41 -5z m10 -36 c-7 -7 -12 -8 -12 -2 0
14 12 26 19 19 2 -3 -1 -11 -7 -17z m28 -27 c0 -18 -18 -21 -30 -6 -10 13 -9
15 9 15 11 0 21 -4 21 -9z"/>
<path d="M2008 2813 c7 -3 16 -2 19 1 4 3 -2 6 -13 5 -11 0 -14 -3 -6 -6z"/>
<path d="M2702 4990 c0 -14 2 -19 5 -12 2 6 2 18 0 25 -3 6 -5 1 -5 -13z"/>
<path d="M426 4839 c-4 -46 -2 -70 9 -92 19 -38 19 -48 -2 -91 -15 -33 -15
-37 0 -54 21 -23 22 -58 2 -66 -22 -8 -18 -33 7 -51 21 -14 24 -14 36 2 7 10
9 26 5 37 -4 12 -7 100 -8 196 0 170 -1 175 -21 178 -19 3 -22 -3 -28 -59z"/>
<path d="M302 4798 c-7 -7 -60 -12 -157 -12 -139 -1 -145 -2 -145 -21 0 -20 3
-20 108 -12 59 5 135 6 170 4 63 -5 63 -5 60 21 -3 29 -18 38 -36 20z"/>
<path d="M1718 4733 c-9 -15 -19 -46 -23 -68 -4 -22 -10 -44 -14 -50 -3 -5 -6
-17 -8 -25 -1 -8 -5 -30 -8 -49 l-7 -34 60 51 c88 77 91 82 51 83 l-34 1 39
12 c22 7 41 17 42 22 2 5 -5 25 -14 44 -23 47 -60 52 -84 13z"/>
<path d="M300 4660 c-8 -5 -79 -10 -157 -10 l-143 0 0 -25 0 -26 182 3 c158 3
183 6 186 20 3 17 -23 48 -41 48 -7 0 -19 -5 -27 -10z"/>
<path d="M306 4528 c-17 -10 -92 -15 -243 -17 -52 -1 -63 -4 -63 -17 0 -18 24
-17 227 2 35 3 76 1 92 -4 34 -12 56 4 45 32 -7 18 -31 20 -58 4z"/>
<path d="M1158 4513 c-29 -33 -40 -97 -43 -265 -3 -93 -2 -168 1 -168 3 0 43
31 88 69 l83 70 -13 88 c-26 168 -47 223 -83 223 -10 0 -25 -8 -33 -17z"/>
<path d="M1356 4398 c-17 -48 -27 -138 -16 -138 4 0 28 16 54 36 44 34 46 37
40 72 -15 85 -53 99 -78 30z"/>
<path d="M457 4378 c-10 -34 -9 -38 8 -38 16 0 20 27 6 48 -6 10 -10 8 -14
-10z"/>
<path d="M306 4335 c-22 -21 -26 -30 -21 -58 5 -24 2 -39 -9 -50 -20 -20 -20
-27 0 -27 9 0 29 -8 45 -17 29 -17 30 -17 56 9 24 24 25 30 15 53 -7 14 -12
41 -12 58 0 59 -31 72 -74 32z"/>
<path d="M1388 4245 c-25 -18 -49 -39 -53 -44 -10 -17 11 -13 25 4 7 8 18 15
26 15 7 0 22 14 34 30 12 17 20 30 18 30 -2 0 -24 -16 -50 -35z"/>
<path d="M436 4242 c-15 -18 -15 -20 4 -37 33 -30 61 -5 44 39 -8 21 -27 20
-48 -2z"/>
<path d="M0 4193 c0 -13 79 -10 195 7 50 7 40 8 -67 7 -92 -2 -128 -5 -128
-14z"/>
<path d="M1193 4109 c-34 -28 -65 -60 -68 -70 -4 -11 -4 -63 0 -115 7 -85 9
-93 24 -82 13 10 13 9 -1 -8 -20 -24 -24 -39 -6 -28 8 5 9 2 5 -9 -17 -42 -17
-50 0 -27 10 14 27 35 39 46 33 34 77 152 76 206 -1 26 3 50 8 53 6 3 5 16 0
30 -5 14 -7 32 -4 40 10 26 -9 17 -73 -36z"/>
<path d="M347 4083 c-11 -10 -8 -53 3 -53 6 0 10 14 10 30 0 31 -2 35 -13 23z"/>
<path d="M472 4070 c0 -14 2 -19 5 -12 2 6 2 18 0 25 -3 6 -5 1 -5 -13z"/>
<path d="M340 3930 c-8 -14 -8 -26 0 -40 14 -27 30 -16 30 20 0 36 -16 47 -30
20z"/>
<path d="M346 3784 c-10 -26 -7 -44 8 -44 20 0 29 16 21 40 -8 24 -21 26 -29
4z"/>
<path d="M350 3630 c-12 -23 -6 -40 16 -40 8 0 14 10 14 24 0 33 -16 42 -30
16z"/>
<path d="M1017 1213 c-4 -3 -7 -11 -7 -17 0 -6 5 -5 12 2 6 6 9 14 7 17 -3 3
-9 2 -12 -2z"/>
<path d="M120 30 c0 -5 5 -10 10 -10 6 0 10 5 10 10 0 6 -4 10 -10 10 -5 0
-10 -4 -10 -10z"/>
</g>
</svg>
